# Blender 3.3.1
# www.blender.org
mtllib hex-prism.mtl
o Circle
v 0.000000 0.000000 -1.000000
v -0.866025 0.000000 -0.500000
v -0.866025 0.000000 0.500000
v 0.000000 0.000000 1.000000
v 0.866025 0.000000 0.500000
v 0.866025 0.000000 -0.500000
v -0.866025 -5.000000 -0.500000
v 0.000000 -5.000000 -1.000000
v -0.866025 -5.000000 0.500000
v 0.000000 -5.000000 1.000000
v 0.866025 -5.000000 0.500000
v 0.866025 -5.000000 -0.500000
v 0.822724 -0.050000 -0.525000
v 0.043301 -0.050000 -0.975000
v 0.043301 -5.000000 -0.975000
v 0.822724 -5.000000 -0.525000
v -0.043301 -0.050000 -0.975000
v -0.822724 -0.050000 -0.525000
v -0.822724 -5.000000 -0.525000
v -0.043301 -5.000000 -0.975000
v 0.866025 -0.050000 0.450000
v 0.866025 -0.050000 -0.450000
v 0.866025 -5.000000 -0.450000
v 0.866025 -5.000000 0.450000
v 0.043301 -0.050000 0.975000
v 0.822724 -0.050000 0.525000
v 0.822724 -5.000000 0.525000
v 0.043301 -5.000000 0.975000
v -0.822724 -0.050000 0.525000
v -0.043301 -0.050000 0.975000
v -0.043301 -5.000000 0.975000
v -0.822724 -5.000000 0.525000
v -0.866025 -0.050000 -0.450000
v -0.866025 -0.050000 0.450000
v -0.866025 -5.000000 0.450000
v -0.866025 -5.000000 -0.450000
v -0.816025 0.000000 -0.471132
v 0.000000 0.000000 -0.942265
v 0.816025 0.000000 -0.471132
v 0.816025 0.000000 0.471132
v 0.000000 0.000000 0.942265
v -0.816025 0.000000 0.471132
vn 0.5000 -0.0000 -0.8660
vn -0.5000 -0.0000 -0.8660
vn 1.0000 -0.0000 -0.0000
vn 0.5000 -0.0000 0.8660
vn -0.5000 -0.0000 0.8660
vn -1.0000 -0.0000 -0.0000
vn -0.0000 1.0000 -0.0000
vt 0.500000 1.030636
vt 0.040455 0.765318
vt 0.040455 0.234682
vt 0.500000 -0.030636
vt 0.959545 0.234682
vt 0.959545 0.765318
vt 0.040455 0.765318
vt 0.500000 1.030636
vt 0.040455 0.234682
vt 0.500000 -0.030636
vt 0.959545 0.234682
vt 0.959545 0.765318
vt 0.936567 0.778584
vt 0.522977 1.017370
vt 0.522977 1.017370
vt 0.936567 0.778584
vt 0.477023 1.017370
vt 0.063433 0.778584
vt 0.063433 0.778584
vt 0.477023 1.017370
vt 0.959545 0.261214
vt 0.959545 0.738786
vt 0.959545 0.738786
vt 0.959545 0.261214
vt 0.522977 -0.017370
vt 0.936567 0.221416
vt 0.936567 0.221416
vt 0.522977 -0.017370
vt 0.063433 0.221416
vt 0.477023 -0.017370
vt 0.477023 -0.017370
vt 0.063433 0.221416
vt 0.040455 0.738786
vt 0.040455 0.261214
vt 0.040455 0.261214
vt 0.040455 0.738786
vt 0.066987 0.750000
vt 0.500000 1.000000
vt 0.933013 0.750000
vt 0.933013 0.250000
vt 0.500000 0.000000
vt 0.066987 0.250000
s 0
usemtl Texture
f 37/37/7 42/42/7 41/41/7 40/40/7 39/39/7 38/38/7
usemtl Edges
f 6/6/1 13/13/1 14/14/1 1/1/1
f 1/1/1 14/14/1 15/15/1 8/8/1
f 12/12/1 16/16/1 13/13/1 6/6/1
f 1/1/2 17/17/2 18/18/2 2/2/2
f 2/2/2 18/18/2 19/19/2 7/7/2
f 8/8/2 20/20/2 17/17/2 1/1/2
f 5/5/3 21/21/3 22/22/3 6/6/3
f 6/6/3 22/22/3 23/23/3 12/12/3
f 11/11/3 24/24/3 21/21/3 5/5/3
f 4/4/4 25/25/4 26/26/4 5/5/4
f 5/5/4 26/26/4 27/27/4 11/11/4
f 10/10/4 28/28/4 25/25/4 4/4/4
f 3/3/5 29/29/5 30/30/5 4/4/5
f 4/4/5 30/30/5 31/31/5 10/10/5
f 9/9/5 32/32/5 29/29/5 3/3/5
f 2/2/6 33/33/6 34/34/6 3/3/6
f 3/3/6 34/34/6 35/35/6 9/9/6
f 7/7/6 36/36/6 33/33/6 2/2/6
f 2/2/7 37/37/7 38/38/7 1/1/7
f 1/1/7 38/38/7 39/39/7 6/6/7
f 6/6/7 39/39/7 40/40/7 5/5/7
f 5/5/7 40/40/7 41/41/7 4/4/7
f 4/4/7 41/41/7 42/42/7 3/3/7
f 3/3/7 42/42/7 37/37/7 2/2/7
usemtl Faces
f 13/13/1 16/16/1 15/15/1 14/14/1
f 17/17/2 20/20/2 19/19/2 18/18/2
f 21/21/3 24/24/3 23/23/3 22/22/3
f 25/25/4 28/28/4 27/27/4 26/26/4
f 29/29/5 32/32/5 31/31/5 30/30/5
f 33/33/6 36/36/6 35/35/6 34/34/6
